# xmcd
#
# Track frame offsets:
#  150
#  17712
#  29373
#  39173
#  55530
#  67821
#  81761
#  94376
#
# Disc length: 1427 seconds
#
# Revision: 1
# Processed by: cddbd v1.5.1PL2 Copyright (c) Steve Scherf et al.
# Submitted via: Collectorz.com_Music_Collector 6.9
#
DISCID=55059108
DTITLE=Merle Haggard - Country Legend - Disc 1
DYEAR=2003
DGENRE=Country
TTITLE0=I Think I'll Just Stay Here and Drink
TTITLE1=Carolyn
TTITLE2=Mama Tried
TTITLE3=Hungry Eyes
TTITLE4=Everybody's Had the Blues
TTITLE5=I Threw Away the Rose
TTITLE6=It's Been a Great Afternoon/Love Me When You Can
TTITLE7=Emptiest Arms in the World
EXTD=
EXTT0=
EXTT1=
EXTT2=
EXTT3=
EXTT4=
EXTT5=
EXTT6=
EXTT7=
PLAYORDER=
